HIERARCHY
ROOT Hips
{
	OFFSET 0.000000 0.000000 0.000000
	CHANNELS 6 Xposition Yposition Zposition Xrotation Yrotation Zrotation
	JOINT Thigh.L
	{
		OFFSET 0.053933 0.027458 -0.092488
		CHANNELS 3 Xrotation Yrotation Zrotation
		JOINT Shin.L
		{
			OFFSET 0.060624 0.006636 -0.409230
			CHANNELS 3 Xrotation Yrotation Zrotation
			JOINT Foot.L
			{
				OFFSET -0.041204 0.031165 -0.432826
				CHANNELS 3 Xrotation Yrotation Zrotation
				JOINT Toe.L
				{
					OFFSET 0.047118 -0.124944 -0.063835
					CHANNELS 3 Xrotation Yrotation Zrotation
					End Site
					{
						OFFSET 0.000000 0.050000 0.000000
					}
				}
			}
		}
	}
	JOINT Thigh.R
	{
		OFFSET -0.059102 0.021970 -0.104812
		CHANNELS 3 Xrotation Yrotation Zrotation
		JOINT Shin.R
		{
			OFFSET -0.049634 0.014380 -0.390937
			CHANNELS 3 Xrotation Yrotation Zrotation
			JOINT Foot.R
			{
				OFFSET 0.013782 0.019579 -0.441807
				CHANNELS 3 Xrotation Yrotation Zrotation
				JOINT Toe.R
				{
					OFFSET -0.038914 -0.125808 -0.063743
					CHANNELS 3 Xrotation Yrotation Zrotation
					End Site
					{
						OFFSET 0.000000 0.050000 0.000000
					}
				}
			}
		}
	}
	JOINT Spine
	{
		OFFSET -0.002549 0.025936 0.110648
		CHANNELS 3 Xrotation Yrotation Zrotation
		JOINT Spine.2
		{
			OFFSET 0.008347 0.006031 0.136483
			CHANNELS 3 Xrotation Yrotation Zrotation
			JOINT Chest
			{
				OFFSET -0.010427 -0.021727 0.054611
				CHANNELS 3 Xrotation Yrotation Zrotation
				JOINT Neck
				{
					OFFSET -0.011663 0.024402 0.166169
					CHANNELS 3 Xrotation Yrotation Zrotation
					JOINT Head
					{
						OFFSET 0.024792 -0.021358 0.169766
						CHANNELS 3 Xrotation Yrotation Zrotation
						End Site
						{
							OFFSET 0.000000 0.050000 0.000000
						}
					}
				}
				JOINT Clavicle.L
				{
					OFFSET 0.046704 0.004231 0.085567
					CHANNELS 3 Xrotation Yrotation Zrotation
					JOINT UpperArm.L
					{
						OFFSET 0.125032 0.012977 0.056899
						CHANNELS 3 Xrotation Yrotation Zrotation
						JOINT ForeArm.L
						{
							OFFSET 0.268288 0.041828 -0.074994
							CHANNELS 3 Xrotation Yrotation Zrotation
							JOINT Hand.L
							{
								OFFSET 0.271308 0.001207 0.021567
								CHANNELS 3 Xrotation Yrotation Zrotation
								JOINT Thumb1.L
								{
									OFFSET 0.154621 0.000532 0.009509
									CHANNELS 3 Xrotation Yrotation Zrotation
									JOINT Thumb2.L
									{
										OFFSET 0.029905 0.000133 0.002377
										CHANNELS 3 Xrotation Yrotation Zrotation
										End Site
										{
											OFFSET 0.024921 0.000111 0.001981
										}
									}
								}
								JOINT Index1.L
								{
									OFFSET 0.137621 0.000532 0.009509
									CHANNELS 3 Xrotation Yrotation Zrotation
									JOINT Index2.L
									{
										OFFSET 0.029905 0.000133 0.002377
										CHANNELS 3 Xrotation Yrotation Zrotation
										JOINT Index3.L
										{
											OFFSET 0.021931 0.000098 0.001743
											CHANNELS 3 Xrotation Yrotation Zrotation
											End Site
											{
												OFFSET 0.017943 0.000080 0.001426
											}
										}
									}
								}
								JOINT Middle1.L
								{
									OFFSET 0.119621 0.000532 0.009509
									CHANNELS 3 Xrotation Yrotation Zrotation
									JOINT Middle2.L
									{
										OFFSET 0.030902 0.000137 0.002456
										CHANNELS 3 Xrotation Yrotation Zrotation
										JOINT Middle3.L
										{
											OFFSET 0.021931 0.000098 0.001743
											CHANNELS 3 Xrotation Yrotation Zrotation
											End Site
											{
												OFFSET 0.017943 0.000080 0.001426
											}
										}
									}
								}
								JOINT Ring1.L
								{
									OFFSET 0.101621 0.000532 0.009509
									CHANNELS 3 Xrotation Yrotation Zrotation
									JOINT Ring2.L
									{
										OFFSET 0.028909 0.000129 0.002298
										CHANNELS 3 Xrotation Yrotation Zrotation
										JOINT Ring3.L
										{
											OFFSET 0.019937 0.000089 0.001585
											CHANNELS 3 Xrotation Yrotation Zrotation
											End Site
											{
												OFFSET 0.016946 0.000075 0.001347
											}
										}
									}
								}
								JOINT Pinky1.L
								{
									OFFSET 0.085621 0.000532 0.009509
									CHANNELS 3 Xrotation Yrotation Zrotation
									JOINT Pinky2.L
									{
										OFFSET 0.023924 0.000106 0.001902
										CHANNELS 3 Xrotation Yrotation Zrotation
										JOINT Pinky3.L
										{
											OFFSET 0.016946 0.000075 0.001347
											CHANNELS 3 Xrotation Yrotation Zrotation
											End Site
											{
												OFFSET 0.013956 0.000062 0.001109
											}
										}
									}
								}
							}
						}
					}
				}
				JOINT Clavicle.R
				{
					OFFSET -0.047102 0.010264 0.084633
					CHANNELS 3 Xrotation Yrotation Zrotation
					JOINT UpperArm.R
					{
						OFFSET -0.108548 0.009163 0.053381
						CHANNELS 3 Xrotation Yrotation Zrotation
						JOINT ForeArm.R
						{
							OFFSET -0.286221 0.027143 -0.040291
							CHANNELS 3 Xrotation Yrotation Zrotation
							JOINT Hand.R
							{
								OFFSET -0.267680 0.014562 -0.005459
								CHANNELS 3 Xrotation Yrotation Zrotation
								JOINT Thumb1.R
								{
									OFFSET -0.154798 0.006517 -0.002443
									CHANNELS 3 Xrotation Yrotation Zrotation
									JOINT Thumb2.R
									{
										OFFSET -0.029949 0.001629 -0.000611
										CHANNELS 3 Xrotation Yrotation Zrotation
										End Site
										{
											OFFSET -0.024958 0.001358 -0.000509
										}
									}
								}
								JOINT Index1.R
								{
									OFFSET -0.137798 0.006517 -0.002443
									CHANNELS 3 Xrotation Yrotation Zrotation
									JOINT Index2.R
									{
										OFFSET -0.029949 0.001629 -0.000611
										CHANNELS 3 Xrotation Yrotation Zrotation
										JOINT Index3.R
										{
											OFFSET -0.021963 0.001195 -0.000448
											CHANNELS 3 Xrotation Yrotation Zrotation
											End Site
											{
												OFFSET -0.017970 0.000978 -0.000366
											}
										}
									}
								}
								JOINT Middle1.R
								{
									OFFSET -0.119798 0.006517 -0.002443
									CHANNELS 3 Xrotation Yrotation Zrotation
									JOINT Middle2.R
									{
										OFFSET -0.030948 0.001684 -0.000631
										CHANNELS 3 Xrotation Yrotation Zrotation
										JOINT Middle3.R
										{
											OFFSET -0.021963 0.001195 -0.000448
											CHANNELS 3 Xrotation Yrotation Zrotation
											End Site
											{
												OFFSET -0.017970 0.000978 -0.000366
											}
										}
									}
								}
								JOINT Ring1.R
								{
									OFFSET -0.101798 0.006517 -0.002443
									CHANNELS 3 Xrotation Yrotation Zrotation
									JOINT Ring2.R
									{
										OFFSET -0.028951 0.001575 -0.000590
										CHANNELS 3 Xrotation Yrotation Zrotation
										JOINT Ring3.R
										{
											OFFSET -0.019966 0.001086 -0.000407
											CHANNELS 3 Xrotation Yrotation Zrotation
											End Site
											{
												OFFSET -0.016971 0.000923 -0.000346
											}
										}
									}
								}
								JOINT Pinky1.R
								{
									OFFSET -0.085798 0.006517 -0.002443
									CHANNELS 3 Xrotation Yrotation Zrotation
									JOINT Pinky2.R
									{
										OFFSET -0.023960 0.001303 -0.000489
										CHANNELS 3 Xrotation Yrotation Zrotation
										JOINT Pinky3.R
										{
											OFFSET -0.016971 0.000923 -0.000346
											CHANNELS 3 Xrotation Yrotation Zrotation
											End Site
											{
												OFFSET -0.013976 0.000760 -0.000285
											}
										}
									}
								}
							}
						}
					}
				}
			}
		}
	}
}
MOTION
Frames: 4
Frame Time: 0.04166667
0.100384601 -0.192631002 1.052759 -11.958778 -0.710465 0.244761 -14.133004 -15.264250 3.870337 42.227769 6.587209 -6.644985 -17.186247 0.348057 8.490078 -0.257181 -0.047463 -0.471137 -12.293913 23.013360 -8.805120 35.806191 -5.478242 -0.233451 -19.506589 -6.756162 -2.514364 -0.673898 -2.312183 -0.389295 19.984169 0.576316 5.510141 -8.548503 0.860660 0.202177 5.161249 0.369632 4.033504 6.441317 0.193381 -2.423042 3.762099 -3.127813 -5.109804 -20.841424 -4.532985 -28.854430 -4.230716 27.364172 -55.036354 -12.742356 -8.143533 -46.951232 -14.165200 -19.668399 -6.597725 0.000000 0.000000 0.000000 0.000000 0.000000 0.000000 0.000000 0.000000 0.000000 0.000000 0.000000 0.000000 0.000000 0.000000 0.000000 0.000000 0.000000 0.000000 0.000000 0.000000 0.000000 0.000000 0.000000 0.000000 0.000000 0.000000 0.000000 0.000000 0.000000 0.000000 0.000000 0.000000 0.000000 0.000000 0.000000 0.000000 0.000000 0.000000 0.000000 0.000000 0.000000 0.000000 -12.739776 -1.054040 35.161727 -6.512841 -24.256857 58.477916 -3.214687 3.487889 44.274919 -21.836848 7.372940 4.858504 0.000000 0.000000 0.000000 0.000000 0.000000 0.000000 0.000000 0.000000 0.000000 0.000000 0.000000 0.000000 0.000000 0.000000 0.000000 0.000000 0.000000 0.000000 0.000000 0.000000 0.000000 0.000000 0.000000 0.000000 0.000000 0.000000 0.000000 0.000000 0.000000 0.000000 0.000000 0.000000 0.000000 0.000000 0.000000 0.000000 0.000000 0.000000 0.000000 0.000000 0.000000 0.000000
0.102848208 -0.192121009 1.053304 -11.796912 -0.620544 0.007975 -14.030288 -15.761968 4.017232 41.676889 6.591325 -6.676330 -16.747881 0.891541 8.567424 -0.296249 -0.174183 -0.479446 -12.910556 22.646518 -8.557677 36.522775 -5.608536 0.005106 -19.582941 -6.335241 -2.475221 -0.651441 -2.386860 -0.424373 20.049305 0.698057 5.138612 -8.735742 0.991685 0.050831 5.024391 0.521279 3.710061 6.030577 0.005971 -2.076496 3.689378 -3.102941 -4.463458 -20.880304 -4.406591 -29.160317 -3.873937 28.131127 -55.664856 -13.758345 -7.333388 -45.745328 -18.230736 -19.764066 -6.973605 0.000000 0.000000 0.000000 0.000000 0.000000 0.000000 0.000000 0.000000 0.000000 0.000000 0.000000 0.000000 0.000000 0.000000 0.000000 0.000000 0.000000 0.000000 0.000000 0.000000 0.000000 0.000000 0.000000 0.000000 0.000000 0.000000 0.000000 0.000000 0.000000 0.000000 0.000000 0.000000 0.000000 0.000000 0.000000 0.000000 0.000000 0.000000 0.000000 0.000000 0.000000 0.000000 -13.319339 -0.726520 35.189314 -7.025276 -23.975822 58.394102 -4.415946 2.862402 44.876799 -24.464169 7.407587 5.019091 0.000000 0.000000 0.000000 0.000000 0.000000 0.000000 0.000000 0.000000 0.000000 0.000000 0.000000 0.000000 0.000000 0.000000 0.000000 0.000000 0.000000 0.000000 0.000000 0.000000 0.000000 0.000000 0.000000 0.000000 0.000000 0.000000 0.000000 0.000000 0.000000 0.000000 0.000000 0.000000 0.000000 0.000000 0.000000 0.000000 0.000000 0.000000 0.000000 0.000000 0.000000 0.000000
0.113870205 -0.191949162 1.054039 -11.685767 -0.631242 -0.096231 -13.956549 -16.293651 4.044782 41.150082 6.337860 -6.637601 -16.018889 1.713489 8.513546 -0.293308 -0.350311 -0.570475 -13.448784 22.124526 -8.357198 37.398553 -5.856041 -0.022355 -20.116268 -5.642597 -2.520310 -0.606336 -2.428443 -0.319252 20.032993 0.645521 4.834709 -8.730749 0.969140 -0.083388 4.842518 0.612751 3.501820 5.554252 -0.040090 -1.584344 3.156738 -2.849172 -3.911818 -20.668375 -4.078213 -29.596342 -3.673302 28.932487 -56.064375 -14.836586 -6.420895 -44.359233 -20.548332 -19.946150 -7.338735 0.000000 0.000000 0.000000 0.000000 0.000000 0.000000 0.000000 0.000000 0.000000 0.000000 0.000000 0.000000 0.000000 0.000000 0.000000 0.000000 0.000000 0.000000 0.000000 0.000000 0.000000 0.000000 0.000000 0.000000 0.000000 0.000000 0.000000 0.000000 0.000000 0.000000 0.000000 0.000000 0.000000 0.000000 0.000000 0.000000 0.000000 0.000000 0.000000 0.000000 0.000000 0.000000 -13.690247 -0.375705 35.393910 -7.903527 -23.556060 58.178355 -5.358710 2.289612 44.898635 -25.582931 7.517076 5.278839 0.000000 0.000000 0.000000 0.000000 0.000000 0.000000 0.000000 0.000000 0.000000 0.000000 0.000000 0.000000 0.000000 0.000000 0.000000 0.000000 0.000000 0.000000 0.000000 0.000000 0.000000 0.000000 0.000000 0.000000 0.000000 0.000000 0.000000 0.000000 0.000000 0.000000 0.000000 0.000000 0.000000 0.000000 0.000000 0.000000 0.000000 0.000000 0.000000 0.000000 0.000000 0.000000
0.120078094 -0.189942397 1.054650 -11.410129 -0.456364 -0.278249 -13.786552 -16.884410 4.244237 40.573239 6.209389 -6.564363 -15.700768 2.283447 8.434769 -0.369871 -0.482295 -0.615815 -13.915737 21.743156 -8.258317 38.092902 -6.231641 -0.039776 -20.253781 -5.184065 -2.374757 -0.610953 -2.492136 -0.249895 19.884813 0.616501 4.509476 -8.727517 0.970202 -0.133828 4.762710 0.633436 3.340760 5.013238 -0.115520 -1.490554 2.902034 -2.920166 -3.335225 -20.573226 -3.675213 -30.016969 -3.495519 29.662944 -56.315841 -16.728707 -5.380598 -43.480972 -23.509438 -20.771123 -7.712438 0.000000 0.000000 0.000000 0.000000 0.000000 0.000000 0.000000 0.000000 0.000000 0.000000 0.000000 0.000000 0.000000 0.000000 0.000000 0.000000 0.000000 0.000000 0.000000 0.000000 0.000000 0.000000 0.000000 0.000000 0.000000 0.000000 0.000000 0.000000 0.000000 0.000000 0.000000 0.000000 0.000000 0.000000 0.000000 0.000000 0.000000 0.000000 0.000000 0.000000 0.000000 0.000000 -14.141507 -0.001618 35.580703 -8.534788 -23.267869 57.947513 -6.818632 1.484614 44.926094 -26.351028 7.839376 5.576925 0.000000 0.000000 0.000000 0.000000 0.000000 0.000000 0.000000 0.000000 0.000000 0.000000 0.000000 0.000000 0.000000 0.000000 0.000000 0.000000 0.000000 0.000000 0.000000 0.000000 0.000000 0.000000 0.000000 0.000000 0.000000 0.000000 0.000000 0.000000 0.000000 0.000000 0.000000 0.000000 0.000000 0.000000 0.000000 0.000000 0.000000 0.000000 0.000000 0.000000 0.000000 0.000000
